# xmcd CD database file
#
# Track frame offsets:
#	150
#	25745
#	49305
#	77474
#	104933
#	135298
#	166993
#	200595
#	227731
#	248053
#
# Disc length: 3546 seconds
#
# Revision: 0
# Processed by: cddbd v1.4PL0 Copyright (c) Steve Scherf et al.
# Submitted via: CDex 1.50beta9
#
DISCID=7e0dd80a
DTITLE=Mark Soskin - Five lands
DYEAR=1998
DGENRE=Jazz
TTITLE0=Lookout street
TTITLE1=Listening room
TTITLE2=One once
TTITLE3=17
TTITLE4=Close at hand
TTITLE5=Now then
TTITLE6=Fuchsia
TTITLE7=Five lands
TTITLE8=House of cards
TTITLE9=Unknown
EXTD=YEAR: 1998
EXTT0=
EXTT1=
EXTT2=
EXTT3=
EXTT4=
EXTT5=
EXTT6=
EXTT7=
EXTT8=
EXTT9=
PLAYORDER=
